<mxfile host="app.diagrams.net" modified="2023-12-08T05:39:10.279Z" agent="Mozilla/5.0 (Windows NT 10.0; Win64; x64; rv:120.0) Gecko/20100101 Firefox/120.0" version="22.1.7" etag="rZ7fthJPerGWxp9_zJ1S" type="github">
  <diagram name="Halaman-1" id="Q9nt4Y31bxneWkKqmOti">
    <mxGraphModel>
      <root>
        <mxCell id="0" />
        <mxCell id="1" parent="0" />
      </root>
    </mxGraphModel>
  </diagram>
</mxfile>
